PathFileType	4	(X/Y/Z)	TVC_36_Cal_03_0_static_RCNL2025.trc
DataRate	CameraRate	NumFrames	NumMarkers	Units	OrigDataRate	OrigDataStartFrame	OrigNumFrames
100	100	11	27	mm	100	105	139
Frame#	Time	R_Shoulder			L_Shoulder			C7			J_Notch			R_Elbow			L_Elbow			R_Wrist			L_Wrist			R_Asis			L_Asis			R_Psis			L_Psis			Sacral			Thoracic			Sternum			R_Thigh_Lateral			R_Knee_Lateral			R_Shank_Lateral			R_Ankle_Lateral			R_Heel			R_Toe			L_Thigh_Lateral			L_Knee_Lateral			L_Shank_Lateral			L_Ankle_Lateral			L_Heel			L_Toe		
		X1	Y1	Z1	X2	Y2	Z2	X3	Y3	Z3	X4	Y4	Z4	X5	Y5	Z5	X6	Y6	Z6	X7	Y7	Z7	X8	Y8	Z8	X9	Y9	Z9	X10	Y10	Z10	X11	Y11	Z11	X12	Y12	Z12	X13	Y13	Z13	X14	Y14	Z14	X15	Y15	Z15	X16	Y16	Z16	X17	Y17	Z17	X18	Y18	Z18	X19	Y19	Z19	X20	Y20	Z20	X21	Y21	Z21	X22	Y22	Z22	X23	Y23	Z23	X24	Y24	Z24	X25	Y25	Z25	X26	Y26	Z26	X27	Y27	Z27
105	1.04000000	-244.990402	1394.793213	19.006205	-348.667175	1367.105103	-328.247955	-346.559113	1434.002808	-138.850464	-187.424118	1320.422485	-170.448975	-243.683670	1130.012207	161.692474	-310.961456	1066.380371	-428.153625	-204.742676	909.584625	125.121986	-205.742859	877.397888	-399.480698	-198.199875	901.572083	-33.702209	-284.646942	903.398438	-279.464478	-385.597382	933.569519	-53.777470	-414.773010	925.716003	-131.766068	-400.185196	929.642761	-92.771769	-383.112549	1156.313721	-107.716324	-150.105667	1168.511353	-188.163467	-246.819565	635.948120	46.547661	-322.712555	459.606628	-8.368634	-342.723572	262.608246	22.487711	-343.529297	69.626144	-56.785866	-391.844513	55.247704	-103.307129	-218.258102	40.378933	-96.401695	-334.752411	672.461243	-369.919891	-307.372864	466.606598	-325.149750	-371.025208	274.329712	-337.536652	-307.897278	69.734375	-317.092102	-314.537689	51.195164	-253.995728	-192.646957	44.788071	-377.747650
106	1.05000000	-245.171997	1394.802979	18.528460	-349.023743	1366.985229	-328.769531	-346.670715	1434.078003	-139.373688	-187.653183	1320.393311	-170.869690	-244.145538	1130.163330	161.266418	-311.139954	1066.262817	-428.456024	-205.265015	909.259827	125.164993	-205.846230	877.355896	-399.813354	-198.323212	901.422485	-33.616203	-284.729065	903.369812	-279.898010	-385.756073	933.548889	-54.039356	-414.902893	925.638855	-132.176041	-400.329483	929.593872	-93.107698	-383.437927	1156.444214	-108.163391	-150.334167	1168.484375	-188.608170	-246.895218	636.031677	46.280548	-322.758850	459.703003	-8.542884	-342.727203	262.658691	22.340736	-343.521027	69.585968	-56.802685	-391.790405	55.190617	-103.516327	-218.242355	40.370136	-96.381462	-334.854675	672.450134	-370.221863	-307.256927	466.610168	-325.411255	-370.938690	274.239258	-337.750824	-307.936707	69.753487	-317.128876	-314.534485	51.213726	-254.004150	-192.579712	44.848541	-377.752228
107	1.06000000	-245.485748	1394.889282	17.958288	-349.318787	1366.843384	-329.265533	-347.028412	1434.125488	-139.993774	-187.846313	1320.402832	-171.280121	-244.385757	1130.307251	160.775269	-311.246796	1066.116089	-428.765656	-205.340393	909.770752	124.657833	-205.917892	877.315002	-400.155365	-198.518051	901.520142	-34.003742	-285.116180	902.968628	-279.961578	-385.869598	933.433105	-54.345009	-415.111633	925.659912	-132.409058	-400.490616	929.546509	-93.377033	-383.732574	1156.348267	-108.638710	-150.652191	1168.386353	-188.910797	-246.792221	636.277588	46.061352	-322.768524	459.701294	-8.747866	-342.754272	262.505188	22.191925	-343.483215	69.700638	-56.860085	-391.847748	55.208580	-103.422058	-218.318176	40.390038	-96.337265	-334.862976	672.490540	-370.680450	-307.200836	466.584991	-325.759857	-370.774994	274.232574	-338.010162	-307.894806	69.736877	-317.105743	-314.524414	51.270615	-253.999039	-192.591965	44.845692	-377.779541
108	1.07000000	-245.785339	1394.975952	17.381409	-349.552460	1366.708862	-329.873901	-347.452332	1434.103516	-140.568985	-188.150513	1320.440796	-171.722244	-244.681793	1130.447510	160.340042	-311.236206	1066.024902	-429.158508	-205.824646	909.867096	124.389183	-205.976501	877.222992	-400.394775	-198.908508	901.375671	-34.054810	-285.524750	902.978699	-280.160706	-385.810394	933.340271	-54.805695	-415.322723	925.626892	-132.655853	-400.566559	929.483582	-93.730774	-384.115112	1156.366211	-108.951630	-150.890488	1168.416626	-189.251297	-246.809784	636.255676	45.817215	-322.815063	459.762177	-8.935323	-342.638519	262.562531	22.103001	-343.407471	69.728020	-56.888359	-391.737274	55.158146	-103.568573	-218.259476	40.374702	-96.390411	-334.791687	672.531067	-371.041382	-307.098450	466.585907	-326.024994	-370.667877	274.231323	-338.210022	-307.910156	69.690422	-317.169922	-314.452698	51.283413	-254.007538	-192.568130	44.861824	-377.774445
109	1.08000000	-246.039841	1395.090820	16.840937	-349.801331	1366.589722	-330.390930	-347.801941	1434.043701	-141.112854	-188.391800	1320.488403	-172.158340	-245.121140	1130.608276	159.907730	-311.439331	1065.804077	-429.595459	-205.749069	909.830658	123.661613	-206.036354	877.143616	-400.586563	-198.973450	901.447205	-34.256351	-285.514923	903.254517	-280.792847	-386.034302	933.315369	-55.133556	-415.295959	925.527771	-132.964096	-400.665131	929.421570	-94.048826	-384.317932	1156.304077	-109.374870	-151.066483	1168.467285	-189.687622	-246.814728	636.314209	45.665157	-322.866943	459.795593	-9.111229	-342.676605	262.441864	22.081343	-343.422607	69.646233	-56.922039	-391.690216	55.112572	-103.610107	-218.313217	40.381775	-96.372452	-334.797119	672.513733	-371.385559	-306.974884	466.545624	-326.358124	-370.526825	274.160583	-338.476196	-307.881897	69.707764	-317.125275	-314.525055	51.214970	-254.004761	-192.616318	44.780582	-377.751190
110	1.09000000	-246.349976	1395.151733	16.275236	-350.056732	1366.499146	-330.884430	-348.016388	1434.050049	-141.612930	-188.654648	1320.483521	-172.683563	-245.431549	1130.813232	159.505173	-311.771240	1065.628418	-429.937256	-206.339386	910.141479	123.735081	-206.256134	877.106110	-400.880173	-199.100403	901.578003	-34.812080	-285.609161	903.309509	-281.239532	-386.308350	933.306946	-55.456467	-415.380707	925.460388	-133.275482	-400.844528	929.383667	-94.365974	-384.495178	1156.283936	-109.733688	-151.304688	1168.446533	-190.157913	-247.060226	636.222046	45.559917	-322.864838	459.798889	-9.270792	-342.707581	262.478119	21.961182	-343.433472	69.743668	-56.867447	-391.920502	55.237431	-103.399551	-218.362595	40.409901	-96.259422	-334.846924	672.586548	-371.752167	-306.899963	466.506592	-326.704956	-370.382690	274.125641	-338.718323	-307.917145	69.711540	-317.155823	-314.573029	51.228683	-254.056366	-192.573166	44.853127	-377.768036
111	1.10000000	-246.606476	1395.329712	15.737927	-350.405884	1366.406494	-331.484833	-348.329376	1434.125977	-142.111221	-188.967209	1320.449341	-173.178589	-245.687759	1130.955200	159.033401	-311.856720	1065.607056	-430.626404	-206.778137	910.285278	123.623726	-206.442352	876.965454	-401.022552	-199.271362	901.759521	-35.246536	-285.917328	903.261597	-281.467377	-386.702332	933.443848	-55.680298	-415.573883	925.435364	-133.536118	-401.138107	929.439606	-94.608208	-384.821075	1156.402710	-109.977859	-151.518997	1168.442627	-190.612823	-246.914444	636.372131	45.333588	-322.902313	459.834412	-9.451824	-342.743622	262.582275	21.877125	-343.417206	69.753265	-56.899666	-391.994537	55.172810	-103.365807	-218.381302	40.278847	-96.298882	-334.864105	672.564575	-372.065796	-306.715454	466.588104	-327.079956	-370.361328	274.122101	-338.870972	-307.919647	69.674904	-317.171143	-314.542511	51.228188	-254.088394	-192.562073	44.866295	-377.773773
112	1.11000000	-246.910400	1395.401123	15.299615	-350.717896	1366.272705	-332.071381	-348.879578	1434.164551	-142.702377	-189.311066	1320.468262	-173.603256	-245.955704	1131.054932	158.591278	-312.002014	1065.504272	-431.058563	-207.216133	910.419769	123.148254	-206.512802	876.891205	-401.216934	-199.470825	901.716125	-35.439541	-286.190430	903.183594	-281.613892	-386.869598	933.475891	-55.974442	-415.917603	925.511047	-133.769028	-401.393600	929.493469	-94.871735	-385.078400	1156.413940	-110.325981	-151.658859	1168.515503	-191.134857	-246.905243	636.389587	45.046661	-322.938843	459.882568	-9.545279	-342.805573	262.730469	21.868557	-343.514038	69.762978	-56.874397	-391.936768	55.139927	-103.432617	-218.367493	40.272709	-96.294182	-335.077179	672.502991	-372.341431	-306.658142	466.631989	-327.423431	-370.367981	274.151398	-339.047272	-307.945129	69.664917	-317.130005	-314.523682	51.236740	-254.066376	-192.592194	44.850452	-377.800842
113	1.12000000	-247.343414	1395.407227	14.698898	-351.154419	1366.168335	-332.561310	-349.379700	1434.254639	-143.096893	-189.604309	1320.517822	-174.202332	-246.340683	1131.174561	158.253906	-312.293091	1065.194336	-431.092346	-207.503616	910.682556	122.645546	-206.500839	876.858002	-401.601929	-199.693604	901.786682	-35.792095	-286.364166	903.130798	-281.789062	-387.061737	933.487122	-56.320538	-416.381622	925.567993	-134.063660	-401.721680	929.527557	-95.192099	-385.058105	1156.393066	-111.125412	-151.951599	1168.596558	-191.640305	-246.831787	636.445923	44.863003	-322.953125	459.933563	-9.695119	-342.816376	262.785370	21.758299	-343.514282	69.760727	-56.935230	-391.978607	55.156124	-103.356949	-218.355270	40.256485	-96.291641	-335.050629	672.421936	-372.571045	-306.588989	466.670532	-327.693542	-370.209839	274.129974	-339.248962	-307.906067	69.673912	-317.208862	-314.526184	51.259460	-254.086411	-192.569595	44.861534	-377.775726
114	1.13000000	-247.801926	1395.618652	14.168775	-351.480896	1366.111206	-333.078400	-349.917542	1434.464478	-143.663803	-189.906448	1320.460205	-174.788345	-246.731506	1131.347534	157.761215	-312.681946	1064.972290	-431.335846	-207.639984	910.757965	122.410244	-206.619247	876.827759	-401.769806	-199.946976	901.956360	-36.067184	-286.561768	903.059570	-281.944702	-387.216278	933.419067	-56.594276	-416.622162	925.641846	-134.419495	-401.919220	929.530457	-95.506886	-385.323822	1156.320190	-111.603500	-152.155380	1168.606079	-192.132950	-247.229095	636.265625	44.224712	-323.023102	459.978851	-9.879972	-342.837799	262.821503	21.588959	-343.492920	69.776100	-56.940765	-391.997894	55.187923	-103.338020	-218.409836	40.284306	-96.378677	-335.108978	672.422974	-372.934479	-306.435181	466.710022	-327.928375	-370.140900	274.074738	-339.502960	-307.892792	69.687065	-317.201721	-314.570770	51.306293	-254.080460	-192.554688	44.849453	-377.801941
115	1.14000000	-248.129791	1395.721191	13.701343	-351.926117	1366.050903	-333.547974	-349.811951	1434.468140	-144.432556	-190.396408	1320.595337	-175.554520	-247.114304	1131.562500	157.373566	-313.136261	1064.735107	-431.566010	-207.939224	910.850403	121.948326	-206.848328	876.603058	-402.051636	-200.041931	901.994751	-36.427708	-286.785553	903.130249	-282.120758	-387.399323	933.548889	-56.863571	-416.861969	925.651733	-134.744308	-402.130646	929.600311	-95.803940	-385.789856	1156.437012	-111.798195	-152.506287	1168.666504	-192.644333	-247.122711	636.378662	43.880493	-323.027466	460.010864	-10.053915	-342.927887	262.953522	21.569159	-343.484070	69.802856	-56.952000	-391.975037	55.160015	-103.377403	-218.312469	40.348602	-96.339531	-335.492401	671.730774	-373.263733	-306.367737	466.723236	-328.296906	-370.062103	273.998535	-339.586304	-307.893799	69.692162	-317.221100	-314.580902	51.333111	-254.101730	-192.554489	44.848438	-377.806488
